<svg width="56" height="56" viewBox="0 0 56 56" fill="none" xmlns="http://www.w3.org/2000/svg">
<g id="Group">
<path id="Vector" d="M27.8868 55.7602C24.2236 55.762 20.5959 55.0417 17.2113 53.6404C13.8267 52.2392 10.7515 50.1845 8.16156 47.5939C5.5716 45.0033 3.51769 41.9277 2.11726 38.5427C0.716837 35.1578 -0.00262986 31.53 7.22311e-06 27.8668C7.22311e-06 27.3385 7.02042e-06 26.7968 0.0468193 26.215C0.472855 19.1211 3.59113 12.4576 8.76471 7.58538C13.9383 2.71319 20.7768 0 27.8834 0C34.9901 0 41.8286 2.71319 47.0021 7.58538C52.1757 12.4576 55.294 19.1211 55.72 26.215C55.72 26.7968 55.7735 27.3385 55.7735 27.8668C55.7753 31.5297 55.0552 35.1571 53.6545 38.5417C52.2537 41.9262 50.1998 45.0016 47.61 47.592C45.0202 50.1824 41.9454 52.2371 38.5612 53.6386C35.1769 55.0402 31.5497 55.7611 27.8868 55.7602ZM27.8868 1.3242C21.1188 1.32085 14.6053 3.90365 9.67881 8.54423C4.75231 13.1848 1.78514 19.5324 1.38431 26.2885C1.38431 26.8503 1.3375 27.3652 1.3375 27.8668C1.3375 34.9081 4.13465 41.661 9.1136 46.6399C14.0926 51.6189 20.8455 54.416 27.8868 54.416C34.9281 54.416 41.681 51.6189 46.6599 46.6399C51.6389 41.661 54.436 34.9081 54.436 27.8668C54.436 27.3652 54.436 26.8503 54.3825 26.2885C53.9849 19.5325 51.0197 13.1839 46.0939 8.54288C41.1681 3.90182 34.6545 1.31933 27.8868 1.3242Z" fill="#093F68" fill-opacity="0.2"/>
<path id="Vector_2" d="M27.8863 18.6187L18.0156 25.7877L21.7874 37.3837H33.9786L37.7504 25.7877L27.8863 18.6187Z" fill="#093F68" fill-opacity="0.2"/>
<path id="Vector_3" d="M33.9801 38.0522H21.7889C21.6479 38.0521 21.5105 38.0074 21.3964 37.9246C21.2823 37.8417 21.1973 37.7249 21.1536 37.5908L17.3818 25.9947C17.3384 25.8598 17.3389 25.7145 17.3834 25.5798C17.4278 25.4452 17.514 25.3282 17.6293 25.2457L27.4933 18.0767C27.6072 17.9946 27.7441 17.9504 27.8845 17.9504C28.025 17.9504 28.1618 17.9946 28.2757 18.0767L38.1464 25.2457C38.2606 25.3291 38.3453 25.4465 38.3886 25.5811C38.4318 25.7156 38.4314 25.8604 38.3872 25.9947L34.6154 37.5908C34.5717 37.7249 34.4867 37.8417 34.3726 37.9246C34.2585 38.0074 34.1212 38.0521 33.9801 38.0522ZM22.2771 36.7147H33.4986L36.9628 26.0148L27.8878 19.4544L18.8063 26.0482L22.2771 36.7147Z" fill="#093F68" fill-opacity="0.2"/>
<path id="Vector_4" d="M38.9679 3.00325L27.8868 11.0282L16.8057 3.00325C20.295 1.45569 24.0697 0.656158 27.8868 0.656158C31.7039 0.656158 35.4787 1.45569 38.9679 3.00325Z" fill="#093F68" fill-opacity="0.2"/>
<path id="Vector_5" d="M27.8879 11.7237C27.7467 11.7217 27.6093 11.6774 27.4934 11.5967L16.4122 3.57172C16.3172 3.50318 16.2419 3.41089 16.1938 3.30409C16.1457 3.19729 16.1265 3.07972 16.1381 2.96315C16.1504 2.84613 16.1933 2.73443 16.2626 2.63932C16.3319 2.54421 16.425 2.46907 16.5326 2.42147C20.1115 0.830062 23.9846 0.00775146 27.9013 0.00775146C31.8181 0.00775146 35.6912 0.830062 39.27 2.42147C39.3764 2.46998 39.4682 2.54553 39.5362 2.64058C39.6043 2.73562 39.6462 2.84684 39.6579 2.96315C39.6702 3.07911 39.652 3.19628 39.6051 3.30303C39.5582 3.40978 39.4842 3.50241 39.3904 3.57172L28.3093 11.5967C28.1859 11.6827 28.0383 11.7272 27.8879 11.7237ZM18.1577 3.16378L27.8879 10.2257L37.6182 3.16378C31.363 0.711947 24.4128 0.711947 18.1577 3.16378Z" fill="#093F68" fill-opacity="0.2"/>
<path id="Vector_6" d="M11.0737 21.6412L0.714844 26.2555C1.12142 19.2346 4.23838 12.6458 9.40856 7.87836L9.62925 7.93186L11.0537 21.4606L11.0737 21.6412Z" fill="#093F68" fill-opacity="0.2"/>
<path id="Vector_7" d="M0.716827 26.9245C0.625525 26.9247 0.535159 26.9062 0.451292 26.8701C0.367425 26.834 0.291834 26.7811 0.22918 26.7147C0.166527 26.6483 0.118135 26.5697 0.0869889 26.4839C0.0558428 26.3981 0.0426017 26.3068 0.04808 26.2157C0.465045 19.0309 3.65934 12.2898 8.95579 7.41718C9.03556 7.3436 9.13205 7.29053 9.23691 7.26257C9.34176 7.23461 9.45185 7.23258 9.55767 7.25667L9.77835 7.30349C9.91532 7.33354 10.0394 7.40588 10.133 7.51028C10.2266 7.61469 10.285 7.74588 10.3 7.8853L11.7378 21.6013C11.7503 21.7392 11.7198 21.8776 11.6503 21.9974C11.5808 22.1172 11.4758 22.2125 11.3499 22.2701L0.991016 26.8844C0.903424 26.9168 0.810022 26.9304 0.716827 26.9245ZM9.08286 9.12248C4.76393 13.4297 2.07406 19.1025 1.47251 25.1724L10.3602 21.2134L9.08286 9.12248Z" fill="#093F68" fill-opacity="0.2"/>
<path id="Vector_8" d="M55.0591 26.2553L44.7002 21.641V21.4604L46.1246 7.93164L46.3453 7.88483C51.5237 12.6456 54.6483 19.2331 55.0591 26.2553Z" fill="#093F68" fill-opacity="0.2"/>
<path id="Vector_9" d="M55.0576 26.924C54.9651 26.9241 54.8737 26.9035 54.7901 26.8638L44.4312 22.2494C44.304 22.1929 44.1977 22.0981 44.1269 21.9782C44.0562 21.8583 44.0247 21.7194 44.0367 21.5807V21.4001L45.4678 7.86469C45.4832 7.72436 45.5426 7.5925 45.6375 7.48799C45.7324 7.38348 45.8579 7.31168 45.9961 7.28288L46.2168 7.23606C46.3211 7.2151 46.4289 7.21934 46.5313 7.24842C46.6336 7.2775 46.7276 7.33057 46.8053 7.40325C52.1133 12.2743 55.3135 19.0226 55.7264 26.2151C55.7318 26.3062 55.7186 26.3975 55.6875 26.4834C55.6563 26.5692 55.6079 26.6477 55.5453 26.7141C55.4826 26.7806 55.407 26.8334 55.3232 26.8695C55.2393 26.9056 55.1489 26.9241 55.0576 26.924ZM45.4143 21.2263L54.3019 25.1852C53.7042 19.1143 51.0138 13.4402 46.6916 9.13531L45.4143 21.2263Z" fill="#093F68" fill-opacity="0.2"/>
<path id="Vector_10" d="M51.8345 40.8076C48.4909 46.9896 42.8898 51.6421 36.1992 53.7946L38.7672 42.0982H38.921L51.8345 40.8076Z" fill="#093F68" fill-opacity="0.2"/>
<path id="Vector_11" d="M36.1991 54.4634C36.0334 54.4629 35.8737 54.401 35.751 54.2895C35.6592 54.2073 35.5919 54.1014 35.5565 53.9834C35.5211 53.8654 35.519 53.7399 35.5504 53.6207L38.1117 41.9244C38.1425 41.7854 38.2168 41.6599 38.3239 41.566C38.4309 41.4722 38.5651 41.415 38.7069 41.4027H38.8607L51.7675 40.1254C51.8894 40.1105 52.0131 40.1295 52.1249 40.1802C52.2368 40.231 52.3325 40.3115 52.4016 40.4131C52.4707 40.5146 52.5104 40.6332 52.5166 40.7559C52.5227 40.8786 52.4949 41.0006 52.4363 41.1085C49.0247 47.4518 43.2817 52.2212 36.4198 54.4099C36.3508 54.4431 36.2756 54.4613 36.1991 54.4634ZM39.3155 42.7202L37.1086 52.7514C42.7501 50.6721 47.5132 46.7299 50.6106 41.5766L39.3155 42.7202Z" fill="#093F68" fill-opacity="0.2"/>
<path id="Vector_12" d="M19.6147 53.8146C12.9338 51.6785 7.33216 47.0516 3.97266 40.8944L16.8728 42.0045V42.0447L19.6147 53.8146Z" fill="#093F68" fill-opacity="0.2"/>
<path id="Vector_13" d="M19.6154 54.4832C19.5466 54.4929 19.4769 54.4929 19.4081 54.4832C12.5438 52.3173 6.78911 47.5697 3.35815 41.242C3.29946 41.1404 3.26855 41.0251 3.26855 40.9077C3.26855 40.7903 3.29946 40.675 3.35815 40.5733C3.42405 40.4723 3.51602 40.3911 3.62433 40.3381C3.73263 40.2851 3.85324 40.2624 3.9734 40.2724L16.8802 41.3892C17.0211 41.4011 17.1546 41.4573 17.2616 41.5498C17.3685 41.6423 17.4434 41.7664 17.4754 41.9041L20.2841 53.6607C20.3163 53.7792 20.3153 53.9043 20.2811 54.0223C20.2469 54.1403 20.1808 54.2465 20.0902 54.3294C19.9577 54.4401 19.7876 54.4952 19.6154 54.4832ZM5.19052 41.67C8.29957 46.8012 13.0608 50.7229 18.6925 52.7913L16.3318 42.633L5.19052 41.67Z" fill="#093F68" fill-opacity="0.2"/>
<path id="Vector_14" d="M18.015 26.4563C17.892 26.4555 17.7717 26.4208 17.6672 26.356L8.47862 20.6516C8.34759 20.5503 8.25878 20.4041 8.22938 20.2411C8.19998 20.0782 8.23208 19.9101 8.31946 19.7695C8.40685 19.6288 8.5433 19.5256 8.70242 19.4798C8.86153 19.4339 9.032 19.4488 9.1808 19.5214L18.3694 25.2191C18.4932 25.2958 18.5885 25.4108 18.641 25.5467C18.6934 25.6825 18.7001 25.8318 18.66 25.9717C18.6199 26.1117 18.5352 26.2348 18.4188 26.3222C18.3024 26.4097 18.1606 26.4568 18.015 26.4563Z" fill="#093F68" fill-opacity="0.2"/>
<path id="Vector_15" d="M37.7363 26.4559C37.5907 26.4564 37.4489 26.4093 37.3325 26.3218C37.2161 26.2344 37.1314 26.1113 37.0913 25.9713C37.0512 25.8314 37.0579 25.6821 37.1103 25.5463C37.1628 25.4104 37.2581 25.2954 37.3819 25.2187L46.5705 19.521C46.6445 19.4638 46.7297 19.4228 46.8206 19.4006C46.9115 19.3783 47.006 19.3755 47.0981 19.3921C47.1902 19.4087 47.2777 19.4444 47.3551 19.497C47.4325 19.5496 47.498 19.6178 47.5474 19.6973C47.5968 19.7767 47.6289 19.8657 47.6418 19.9584C47.6546 20.051 47.6479 20.1454 47.622 20.2353C47.5961 20.3252 47.5516 20.4086 47.4915 20.4803C47.4313 20.5519 47.3567 20.6101 47.2727 20.6512L38.0841 26.3556C37.9796 26.4204 37.8593 26.4551 37.7363 26.4559Z" fill="#093F68" fill-opacity="0.2"/>
<path id="Vector_16" d="M27.8865 21.173C27.7092 21.173 27.5391 21.1025 27.4136 20.9771C27.2882 20.8517 27.2178 20.6816 27.2178 20.5042V11.0548C27.2178 10.8775 27.2882 10.7074 27.4136 10.5819C27.5391 10.4565 27.7092 10.3861 27.8865 10.3861C28.0639 10.3861 28.234 10.4565 28.3594 10.5819C28.4848 10.7074 28.5553 10.8775 28.5553 11.0548V20.5042C28.5553 20.6816 28.4848 20.8517 28.3594 20.9771C28.234 21.1025 28.0639 21.173 27.8865 21.173Z" fill="#093F68" fill-opacity="0.2"/>
<path id="Vector_17" d="M15.047 44.4723C14.9139 44.4718 14.784 44.4316 14.6739 44.3568C14.5638 44.282 14.4785 44.1761 14.4289 44.0526C14.3794 43.9291 14.3678 43.7936 14.3957 43.6634C14.4236 43.5333 14.4897 43.4144 14.5855 43.3221L21.3265 36.8954C21.4551 36.773 21.627 36.7068 21.8045 36.7111C21.9819 36.7155 22.1504 36.7902 22.2728 36.9188C22.3952 37.0474 22.4614 37.2193 22.457 37.3968C22.4527 37.5743 22.378 37.7427 22.2494 37.8651L15.5084 44.2918C15.3834 44.4088 15.2182 44.4734 15.047 44.4723Z" fill="#093F68" fill-opacity="0.2"/>
<path id="Vector_18" d="M40.7266 44.4723C40.5553 44.4734 40.3901 44.4088 40.2651 44.2918L33.5175 37.8651C33.3889 37.7427 33.3142 37.5743 33.3098 37.3968C33.3054 37.2193 33.3717 37.0474 33.4941 36.9188C33.6164 36.7902 33.7849 36.7155 33.9623 36.7111C34.1398 36.7068 34.3117 36.773 34.4403 36.8954L41.188 43.3221C41.3125 43.4474 41.3825 43.6169 41.3825 43.7936C41.3825 43.9702 41.3125 44.1397 41.188 44.265C41.0672 44.3919 40.9016 44.4663 40.7266 44.4723Z" fill="#093F68" fill-opacity="0.2"/>
</g>
</svg>
