<svg width="64" height="67" viewBox="0 0 64 67" fill="none" xmlns="http://www.w3.org/2000/svg">
<g id="Base">
<path id="Polygon" d="M29.3502 2.84317C30.8634 1.50512 33.1366 1.50512 34.6498 2.84317L52.8897 18.9727C53.5409 19.5485 53.9868 20.3208 54.1599 21.1726L59.0084 45.0337C59.4107 47.0131 58.274 48.9818 56.3587 49.6232L33.2701 57.3547C32.4459 57.6307 31.5541 57.6307 30.7299 57.3547L7.64131 49.6232C5.72596 48.9818 4.58933 47.0131 4.99155 45.0337L9.84015 21.1726C10.0132 20.3208 10.4591 19.5485 11.1103 18.9727L29.3502 2.84317Z" fill="url(#paint0_linear_828_53)"/>
<g id="Ring" filter="url(#filter0_d_828_53)">
<path id="Outer Ring" d="M32 57.5C45.8072 57.5 57.0001 46.3071 57.0001 32.5C57.0001 18.6929 45.8072 7.5 32 7.5C18.1929 7.5 7 18.6929 7 32.5C7 46.3071 18.1929 57.5 32 57.5Z" fill="url(#paint1_linear_828_53)"/>
<path id="Radial Gradient" opacity="0.18" d="M32 54.5C44.1503 54.5 54.0001 44.6503 54.0001 32.5C54.0001 20.3497 44.1503 10.5 32 10.5C19.8498 10.5 10 20.3497 10 32.5C10 44.6503 19.8498 54.5 32 54.5Z" fill="url(#paint2_radial_828_53)" fill-opacity="0.5"/>
</g>
<path id="White Base" d="M53.0001 32.4261C53.0001 33.2868 52.9508 34.1474 52.8524 34.9835C52.7539 35.9179 52.5569 36.8523 52.3354 37.7376C52.2369 38.131 52.1384 38.4999 52.0153 38.8933C51.7937 39.5818 51.5476 40.2704 51.2521 40.9343C50.612 42.3851 49.8242 43.7375 48.8887 44.9916C48.1009 46.049 47.2146 47.0326 46.2299 47.9424C42.5124 51.385 37.5394 53.4752 32.074 53.4998C26.6086 53.5244 21.6109 51.4588 17.8689 48.0408C16.9087 47.1556 16.0225 46.1966 15.2346 45.1638C13.7575 43.2212 12.625 41.0081 11.9111 38.6474C11.5664 37.5409 11.3202 36.3851 11.1725 35.2048C11.0741 34.3442 11.0002 33.4835 11.0002 32.6229C10.951 20.9672 20.3061 11.5492 31.9263 11.5C43.5218 11.4755 52.9508 20.8197 53.0001 32.4261Z" fill="#FCFCFC"/>
</g>
<defs>
<filter id="filter0_d_828_53" x="1" y="4.5" width="62" height="62" filterUnits="userSpaceOnUse" color-interpolation-filters="sRGB">
<feFlood flood-opacity="0" result="BackgroundImageFix"/>
<feColorMatrix in="SourceAlpha" type="matrix" values="0 0 0 0 0 0 0 0 0 0 0 0 0 0 0 0 0 0 127 0" result="hardAlpha"/>
<feOffset dy="3"/>
<feGaussianBlur stdDeviation="3"/>
<feColorMatrix type="matrix" values="0 0 0 0 0.00392157 0 0 0 0 0.0196078 0 0 0 0 0.2 0 0 0 0.08 0"/>
<feBlend mode="normal" in2="BackgroundImageFix" result="effect1_dropShadow_828_53"/>
<feBlend mode="normal" in="SourceGraphic" in2="effect1_dropShadow_828_53" result="shape"/>
</filter>
<linearGradient id="paint0_linear_828_53" x1="-0.0347072" y1="32.4895" x2="64.0138" y2="32.4895" gradientUnits="userSpaceOnUse">
<stop stop-color="#C2E8FD"/>
<stop offset="0.3123" stop-color="#67E0AC"/>
<stop offset="0.7592" stop-color="#138B57"/>
<stop offset="1" stop-color="#C2E8FD"/>
</linearGradient>
<linearGradient id="paint1_linear_828_53" x1="6.97288" y1="32.4918" x2="57.0108" y2="32.4918" gradientUnits="userSpaceOnUse">
<stop stop-color="#C2E8FD"/>
<stop offset="0.3123" stop-color="#67E0AC"/>
<stop offset="0.7592" stop-color="#138B57"/>
<stop offset="1" stop-color="#C2E8FD"/>
</linearGradient>
<radialGradient id="paint2_radial_828_53" cx="0" cy="0" r="1" gradientUnits="userSpaceOnUse" gradientTransform="translate(31.989 32.4889) scale(21.9893 21.9893)">
<stop stop-color="white" stop-opacity="0"/>
<stop offset="1" stop-color="#571600"/>
</radialGradient>
</defs>
</svg>
