<svg width="64" height="66" viewBox="0 0 64 66" fill="none" xmlns="http://www.w3.org/2000/svg">
<g id="Base">
<path id="Star 1" d="M29.4055 2.21099C30.9006 0.936934 33.0994 0.936936 34.5945 2.21099L40.8112 7.50882C41.4518 8.05478 42.2484 8.38473 43.0874 8.45169L51.2294 9.10142C53.1875 9.25768 54.7423 10.8125 54.8986 12.7706L55.5483 20.9126C55.6153 21.7516 55.9452 22.5482 56.4912 23.1888L61.789 29.4055C63.0631 30.9006 63.0631 33.0994 61.789 34.5945L56.4912 40.8112C55.9452 41.4518 55.6153 42.2484 55.5483 43.0874L54.8986 51.2294C54.7423 53.1875 53.1875 54.7423 51.2294 54.8986L43.0874 55.5483C42.2484 55.6153 41.4518 55.9452 40.8112 56.4912L34.5945 61.789C33.0994 63.0631 30.9006 63.0631 29.4055 61.789L23.1888 56.4912C22.5482 55.9452 21.7516 55.6153 20.9126 55.5483L12.7706 54.8986C10.8125 54.7423 9.25768 53.1875 9.10142 51.2294L8.45169 43.0874C8.38473 42.2484 8.05478 41.4518 7.50882 40.8112L2.21099 34.5945C0.936934 33.0994 0.936936 30.9006 2.21099 29.4055L7.50882 23.1888C8.05478 22.5482 8.38473 21.7516 8.45169 20.9126L9.10142 12.7706C9.25768 10.8125 10.8125 9.25768 12.7706 9.10142L20.9126 8.45169C21.7516 8.38473 22.5482 8.05478 23.1888 7.50882L29.4055 2.21099Z" fill="url(#paint0_linear_828_183)"/>
<g id="Ring" filter="url(#filter0_d_828_183)">
<path id="Outer Ring" d="M32 57C45.8072 57 57.0001 45.8071 57.0001 32C57.0001 18.1929 45.8072 7 32 7C18.1929 7 7 18.1929 7 32C7 45.8071 18.1929 57 32 57Z" fill="url(#paint1_linear_828_183)"/>
<path id="Radial Gradient" opacity="0.18" d="M32 54C44.1503 54 54.0001 44.1503 54.0001 32C54.0001 19.8497 44.1503 10 32 10C19.8498 10 10 19.8497 10 32C10 44.1503 19.8498 54 32 54Z" fill="url(#paint2_radial_828_183)" fill-opacity="0.5"/>
</g>
<path id="White Base" d="M53 31.9261C53 32.7868 52.9508 33.6474 52.8523 34.4835C52.7538 35.4179 52.5569 36.3523 52.3353 37.2376C52.2368 37.631 52.1383 37.9999 52.0152 38.3933C51.7937 39.0818 51.5475 39.7704 51.2521 40.4343C50.612 41.8851 49.8242 43.2375 48.8886 44.4916C48.1008 45.549 47.2146 46.5326 46.2298 47.4424C42.5124 50.885 37.5393 52.9752 32.074 52.9998C26.6086 53.0244 21.6109 50.9588 17.8689 47.5408C16.9087 46.6556 16.0224 45.6966 15.2346 44.6638C13.7575 42.7212 12.625 40.5081 11.9111 38.1474C11.5664 37.0409 11.3202 35.8851 11.1725 34.7048C11.0741 33.8442 11.0002 32.9835 11.0002 32.1229C10.951 20.4672 20.3061 11.0492 31.9262 11C43.5217 10.9755 52.9508 20.3197 53 31.9261Z" fill="#FCFCFC"/>
</g>
<defs>
<filter id="filter0_d_828_183" x="1" y="4" width="62" height="62" filterUnits="userSpaceOnUse" color-interpolation-filters="sRGB">
<feFlood flood-opacity="0" result="BackgroundImageFix"/>
<feColorMatrix in="SourceAlpha" type="matrix" values="0 0 0 0 0 0 0 0 0 0 0 0 0 0 0 0 0 0 127 0" result="hardAlpha"/>
<feOffset dy="3"/>
<feGaussianBlur stdDeviation="3"/>
<feColorMatrix type="matrix" values="0 0 0 0 0.00392157 0 0 0 0 0.0196078 0 0 0 0 0.2 0 0 0 0.08 0"/>
<feBlend mode="normal" in2="BackgroundImageFix" result="effect1_dropShadow_828_183"/>
<feBlend mode="normal" in="SourceGraphic" in2="effect1_dropShadow_828_183" result="shape"/>
</filter>
<linearGradient id="paint0_linear_828_183" x1="-0.0347072" y1="31.9895" x2="64.0138" y2="31.9895" gradientUnits="userSpaceOnUse">
<stop stop-color="#FFF8C1"/>
<stop offset="0.0001" stop-color="#C2E8FD"/>
<stop offset="0.3123" stop-color="#919191"/>
<stop offset="0.7592" stop-color="#DDDDDD"/>
<stop offset="1" stop-color="#E3E3E3"/>
</linearGradient>
<linearGradient id="paint1_linear_828_183" x1="6.97288" y1="31.9918" x2="57.0108" y2="31.9918" gradientUnits="userSpaceOnUse">
<stop stop-color="#FFF8C1"/>
<stop offset="0.0001" stop-color="#C2E8FD"/>
<stop offset="0.3123" stop-color="#919191"/>
<stop offset="0.7592" stop-color="#DDDDDD"/>
<stop offset="1" stop-color="white"/>
</linearGradient>
<radialGradient id="paint2_radial_828_183" cx="0" cy="0" r="1" gradientUnits="userSpaceOnUse" gradientTransform="translate(31.989 31.9889) scale(21.9893 21.9893)">
<stop stop-color="white" stop-opacity="0"/>
<stop offset="1" stop-color="#571600"/>
</radialGradient>
</defs>
</svg>
